<?xml version="1.0" encoding="UTF-8"?>
<svg id="b" data-name="Слой 2" xmlns="http://www.w3.org/2000/svg" viewBox="0 0 116.21 72.03">
  <g id="c" data-name="Слой 2">
    <path d="M58.01,72.03c-12.33,.04-23.16-3.65-32.93-9.85C15.25,55.94,7.54,48.05,1.16,39.15c-1.57-2.19-1.52-4.05,.04-6.22C8.49,22.81,17.34,13.95,29.18,7.58,45.58-1.25,62.76-2.48,80.44,4.49c9.37,3.69,17.18,9.28,23.75,16.03,3.92,4.03,7.29,8.47,10.89,12.74,1.53,1.82,1.45,3.62,.08,5.55-7.31,10.29-16.3,19.22-28.23,25.76-8.8,4.82-18.38,7.52-28.91,7.46Zm.05-6.69c9.1,.04,17.39-2.36,24.95-6.52,8.7-4.79,15.77-11.1,21.56-18.4,4.21-5.31,4.29-3.46-.03-8.73-7.18-8.75-15.71-16.3-27.19-21.06-6.13-2.54-12.59-3.86-19.32-3.87-9.04-.02-17.41,2.32-24.95,6.54-9.97,5.58-17.73,13.04-24.12,21.6-.79,1.06-.34,1.82,.31,2.72,4.92,6.78,11.08,12.64,18.22,17.72,8.84,6.29,18.96,9.89,30.57,10Z"/>
    <path d="M58.1,15.81c-11.16,0-20.2,9.05-20.2,20.2s9.05,20.2,20.2,20.2,20.2-9.05,20.2-20.2-9.05-20.2-20.2-20.2Zm-15.24,14.39c.78-2.03,3.05-3.05,5.08-2.28,2.03,.78,3.05,3.05,2.28,5.08-.78,2.03-3.05,3.05-5.08,2.28-2.03-.78-3.05-3.05-2.28-5.08Zm10.54,17.92c-1.37,1.69-3.84,1.96-5.54,.59-1.69-1.36-1.96-3.84-.59-5.54s3.84-1.96,5.54-.59c1.69,1.37,1.96,3.84,.59,5.54Zm1.4-24.67c.11-2.17,1.96-3.84,4.13-3.73,2.17,.11,3.84,1.96,3.73,4.13-.11,2.17-1.96,3.84-4.13,3.73-2.17-.11-3.84-1.96-3.73-4.13Zm3.31,14.3c-.96,0-1.74-.78-1.74-1.74s.78-1.74,1.74-1.74,1.74,.78,1.74,1.74-.78,1.74-1.74,1.74Zm8.91,11.92c-1.82,1.19-4.26,.67-5.45-1.15-1.19-1.82-.67-4.26,1.15-5.45,1.82-1.19,4.26-.67,5.45,1.15,1.19,1.82,.67,4.26-1.15,5.45Zm4.06-13.09c-2.1,.57-4.26-.68-4.83-2.77-.57-2.1,.68-4.26,2.77-4.83,2.1-.57,4.26,.68,4.83,2.77,.57,2.1-.68,4.26-2.77,4.83Z"/>
  </g>
</svg>