<?xml version="1.0" encoding="UTF-8"?>
<svg id="b" data-name="Слой 2" xmlns="http://www.w3.org/2000/svg" viewBox="0 0 99.22 58.58">
  <g id="c" data-name="Слой 2">
    <path d="M44.27,35.83c-1.69-1.36-4.17-1.1-5.54,.59-1.37,1.69-1.1,4.17,.59,5.54,1.69,1.37,4.17,1.1,5.54-.59,1.37-1.69,1.1-4.17-.59-5.54Z"/>
    <path d="M41.68,26.25c.78-2.03-.24-4.31-2.28-5.08-2.03-.78-4.31,.24-5.08,2.28-.78,2.03,.24,4.31,2.28,5.08,2.03,.78,4.31-.24,5.08-2.28Z"/>
    <path d="M49.56,27.51c-.96,0-1.74,.78-1.74,1.74s.78,1.74,1.74,1.74,1.74-.78,1.74-1.74-.78-1.74-1.74-1.74Z"/>
    <path d="M54.12,17.09c.11-2.17-1.56-4.02-3.73-4.13-2.17-.11-4.02,1.56-4.13,3.73-.11,2.17,1.56,4.02,3.73,4.13,2.17,.11,4.02-1.56,4.13-3.73Z"/>
    <path d="M96,24.93c-7.18-8.75-15.71-16.3-27.19-21.06C62.67,1.33,56.22,.02,49.49,0c-9.04-.02-17.41,2.32-24.95,6.54C14.57,12.12,6.81,19.58,.42,28.14c-.79,1.06-.34,1.82,.31,2.72,4.92,6.78,11.08,12.64,18.22,17.72,8.84,6.29,18.96,9.89,30.57,10,9.1,.04,17.39-2.36,24.95-6.52,8.7-4.79,15.77-11.1,21.56-18.4,4.21-5.31,4.29-3.46-.03-8.73Zm-46.43,24.53c-11.16,0-20.2-9.05-20.2-20.2s9.05-20.2,20.2-20.2,20.2,9.05,20.2,20.2-9.05,20.2-20.2,20.2Z"/>
    <path d="M60.49,22.23c-2.1,.57-3.34,2.73-2.77,4.83,.57,2.1,2.73,3.34,4.83,2.77,2.1-.57,3.34-2.73,2.77-4.83-.57-2.1-2.73-3.34-4.83-2.77Z"/>
    <path d="M54.18,36.33c-1.82,1.19-2.33,3.63-1.15,5.45,1.19,1.82,3.63,2.33,5.45,1.15,1.82-1.19,2.33-3.63,1.15-5.45-1.19-1.82-3.63-2.33-5.45-1.15Z"/>
  </g>
</svg>